<?xml version="1.0" standalone="no"?>
<!DOCTYPE svg PUBLIC "-//W3C//DTD SVG 20010904//EN"
 "http://www.w3.org/TR/2001/REC-SVG-20010904/DTD/svg10.dtd">
<svg version="1.0" xmlns="http://www.w3.org/2000/svg"
 width="70.000000pt" height="70.000000pt" viewBox="0 0 70.000000 70.000000"
 preserveAspectRatio="xMidYMid meet">
<metadata>
Created by potrace 1.11, written by Peter Selinger 2001-2013
</metadata>
<g transform="translate(0.000000,70.000000) scale(0.100000,-0.100000)"
fill="#000000" stroke="none">
<path d="M273 595 c-49 -21 -99 -109 -105 -186 -2 -21 -14 -37 -45 -59 -24
-17 -47 -29 -52 -25 -12 7 -41 -33 -41 -56 0 -9 6 -21 12 -27 18 -14 68 -3 76
17 6 16 21 31 33 31 4 0 10 -15 13 -34 6 -33 46 -86 65 -86 5 0 12 9 16 19 10
33 32 45 50 28 8 -9 15 -19 15 -23 0 -17 96 -124 111 -124 14 0 36 57 43 115
14 115 16 118 86 136 34 9 63 13 65 8 17 -26 74 34 62 65 -9 23 -55 31 -75 13
-9 -9 -30 -18 -47 -22 -16 -4 -25 -3 -20 2 22 17 55 72 55 90 0 26 -26 48 -75
63 -22 6 -56 19 -75 28 -66 30 -134 41 -167 27z"/>
<path d="M193 142 c-24 -3 -33 -30 -10 -29 29 1 47 -4 47 -12 0 -4 -12 -6 -27
-3 -16 2 -25 2 -22 -2 3 -3 30 -9 60 -12 30 -2 64 -7 76 -9 12 -2 31 -1 43 2
16 4 18 8 8 20 -29 35 -107 55 -175 45z"/>
</g>
</svg>
